<mxfile host="app.diagrams.net" modified="2023-07-07T05:57:53.928Z" agent="Mozilla/5.0 (Windows NT 10.0; Win64; x64) AppleWebKit/537.36 (KHTML, like Gecko) Chrome/114.0.0.0 Safari/537.36" etag="i7He_6WTxr6xDlaiXhQM" version="21.6.1" type="google">
  <diagram id="R2lEEEUBdFMjLlhIrx00" name="Page-1">
    <mxGraphModel grid="1" page="1" gridSize="10" guides="1" tooltips="1" connect="1" arrows="1" fold="1" pageScale="1" pageWidth="850" pageHeight="1100" math="0" shadow="0" extFonts="Permanent Marker^https://fonts.googleapis.com/css?family=Permanent+Marker">
      <root>
        <mxCell id="0" />
        <mxCell id="1" parent="0" />
        <mxCell id="A8YGYMG8HZCut2ozph0z-1" value="Trainee" style="rounded=0;whiteSpace=wrap;html=1;" vertex="1" parent="1">
          <mxGeometry x="130" y="180" width="70" height="30" as="geometry" />
        </mxCell>
        <mxCell id="A8YGYMG8HZCut2ozph0z-2" value="Profile Picture" style="ellipse;whiteSpace=wrap;html=1;" vertex="1" parent="1">
          <mxGeometry x="50" y="30" width="90" height="50" as="geometry" />
        </mxCell>
        <mxCell id="A8YGYMG8HZCut2ozph0z-3" value="Full Name" style="ellipse;whiteSpace=wrap;html=1;" vertex="1" parent="1">
          <mxGeometry x="80" y="280" width="70" height="40" as="geometry" />
        </mxCell>
        <mxCell id="A8YGYMG8HZCut2ozph0z-5" value="Gender" style="ellipse;whiteSpace=wrap;html=1;" vertex="1" parent="1">
          <mxGeometry y="80" width="80" height="50" as="geometry" />
        </mxCell>
        <mxCell id="A8YGYMG8HZCut2ozph0z-6" value="Date of birth" style="ellipse;whiteSpace=wrap;html=1;" vertex="1" parent="1">
          <mxGeometry x="-100" y="170" width="80" height="50" as="geometry" />
        </mxCell>
        <mxCell id="A8YGYMG8HZCut2ozph0z-7" value="Degree name" style="ellipse;whiteSpace=wrap;html=1;" vertex="1" parent="1">
          <mxGeometry x="130" y="80" width="80" height="50" as="geometry" />
        </mxCell>
        <mxCell id="A8YGYMG8HZCut2ozph0z-8" value="Contact number" style="ellipse;whiteSpace=wrap;html=1;" vertex="1" parent="1">
          <mxGeometry x="-60" y="220" width="80" height="50" as="geometry" />
        </mxCell>
        <mxCell id="A8YGYMG8HZCut2ozph0z-9" value="CGPA" style="ellipse;whiteSpace=wrap;html=1;" vertex="1" parent="1">
          <mxGeometry x="20" y="305" width="60" height="40" as="geometry" />
        </mxCell>
        <mxCell id="A8YGYMG8HZCut2ozph0z-10" value="Educational institute" style="ellipse;whiteSpace=wrap;html=1;" vertex="1" parent="1">
          <mxGeometry x="200" y="40" width="80" height="50" as="geometry" />
        </mxCell>
        <mxCell id="A8YGYMG8HZCut2ozph0z-11" value="Valid G-mail" style="ellipse;whiteSpace=wrap;html=1;" vertex="1" parent="1">
          <mxGeometry x="-55" y="120" width="80" height="50" as="geometry" />
        </mxCell>
        <mxCell id="A8YGYMG8HZCut2ozph0z-12" value="Passing year" style="ellipse;whiteSpace=wrap;html=1;" vertex="1" parent="1">
          <mxGeometry x="270" y="100" width="80" height="50" as="geometry" />
        </mxCell>
        <mxCell id="A8YGYMG8HZCut2ozph0z-13" value="Present address" style="ellipse;whiteSpace=wrap;html=1;" vertex="1" parent="1">
          <mxGeometry x="120" y="320" width="80" height="50" as="geometry" />
        </mxCell>
        <mxCell id="A8YGYMG8HZCut2ozph0z-15" value="" style="endArrow=none;html=1;rounded=0;entryX=0.5;entryY=1;entryDx=0;entryDy=0;" edge="1" parent="1" target="A8YGYMG8HZCut2ozph0z-7">
          <mxGeometry width="50" height="50" relative="1" as="geometry">
            <mxPoint x="160" y="180" as="sourcePoint" />
            <mxPoint x="170" y="130" as="targetPoint" />
          </mxGeometry>
        </mxCell>
        <mxCell id="A8YGYMG8HZCut2ozph0z-16" value="" style="endArrow=none;html=1;rounded=0;entryX=0;entryY=1;entryDx=0;entryDy=0;exitX=1;exitY=0;exitDx=0;exitDy=0;" edge="1" parent="1" source="A8YGYMG8HZCut2ozph0z-8" target="A8YGYMG8HZCut2ozph0z-1">
          <mxGeometry width="50" height="50" relative="1" as="geometry">
            <mxPoint x="190" y="240" as="sourcePoint" />
            <mxPoint x="240" y="190" as="targetPoint" />
          </mxGeometry>
        </mxCell>
        <mxCell id="A8YGYMG8HZCut2ozph0z-17" value="" style="endArrow=none;html=1;rounded=0;exitX=0.975;exitY=0.34;exitDx=0;exitDy=0;entryX=0;entryY=0.75;entryDx=0;entryDy=0;exitPerimeter=0;" edge="1" parent="1" source="A8YGYMG8HZCut2ozph0z-6" target="A8YGYMG8HZCut2ozph0z-1">
          <mxGeometry width="50" height="50" relative="1" as="geometry">
            <mxPoint x="190" y="240" as="sourcePoint" />
            <mxPoint x="240" y="190" as="targetPoint" />
          </mxGeometry>
        </mxCell>
        <mxCell id="A8YGYMG8HZCut2ozph0z-18" value="" style="endArrow=none;html=1;rounded=0;exitX=0.414;exitY=0.05;exitDx=0;exitDy=0;exitPerimeter=0;entryX=0.414;entryY=0.967;entryDx=0;entryDy=0;entryPerimeter=0;" edge="1" parent="1" source="A8YGYMG8HZCut2ozph0z-3" target="A8YGYMG8HZCut2ozph0z-1">
          <mxGeometry width="50" height="50" relative="1" as="geometry">
            <mxPoint x="190" y="240" as="sourcePoint" />
            <mxPoint x="240" y="190" as="targetPoint" />
          </mxGeometry>
        </mxCell>
        <mxCell id="A8YGYMG8HZCut2ozph0z-19" value="" style="endArrow=none;html=1;rounded=0;exitX=0.5;exitY=0;exitDx=0;exitDy=0;" edge="1" parent="1" source="A8YGYMG8HZCut2ozph0z-9" target="A8YGYMG8HZCut2ozph0z-1">
          <mxGeometry width="50" height="50" relative="1" as="geometry">
            <mxPoint x="190" y="240" as="sourcePoint" />
            <mxPoint x="240" y="190" as="targetPoint" />
          </mxGeometry>
        </mxCell>
        <mxCell id="A8YGYMG8HZCut2ozph0z-20" value="" style="endArrow=none;html=1;rounded=0;" edge="1" parent="1" source="A8YGYMG8HZCut2ozph0z-1" target="A8YGYMG8HZCut2ozph0z-13">
          <mxGeometry width="50" height="50" relative="1" as="geometry">
            <mxPoint x="190" y="240" as="sourcePoint" />
            <mxPoint x="240" y="190" as="targetPoint" />
          </mxGeometry>
        </mxCell>
        <mxCell id="A8YGYMG8HZCut2ozph0z-21" value="" style="endArrow=none;html=1;rounded=0;exitX=1;exitY=0;exitDx=0;exitDy=0;" edge="1" parent="1" source="A8YGYMG8HZCut2ozph0z-1" target="A8YGYMG8HZCut2ozph0z-12">
          <mxGeometry width="50" height="50" relative="1" as="geometry">
            <mxPoint x="190" y="240" as="sourcePoint" />
            <mxPoint x="240" y="190" as="targetPoint" />
          </mxGeometry>
        </mxCell>
        <mxCell id="A8YGYMG8HZCut2ozph0z-22" value="" style="endArrow=none;html=1;rounded=0;entryX=1;entryY=0.5;entryDx=0;entryDy=0;exitX=0;exitY=0.25;exitDx=0;exitDy=0;" edge="1" parent="1" source="A8YGYMG8HZCut2ozph0z-1" target="A8YGYMG8HZCut2ozph0z-11">
          <mxGeometry width="50" height="50" relative="1" as="geometry">
            <mxPoint x="190" y="240" as="sourcePoint" />
            <mxPoint x="240" y="190" as="targetPoint" />
          </mxGeometry>
        </mxCell>
        <mxCell id="A8YGYMG8HZCut2ozph0z-23" value="" style="endArrow=none;html=1;rounded=0;entryX=0.5;entryY=1;entryDx=0;entryDy=0;exitX=0.75;exitY=0;exitDx=0;exitDy=0;" edge="1" parent="1" source="A8YGYMG8HZCut2ozph0z-1" target="A8YGYMG8HZCut2ozph0z-10">
          <mxGeometry width="50" height="50" relative="1" as="geometry">
            <mxPoint x="190" y="240" as="sourcePoint" />
            <mxPoint x="240" y="190" as="targetPoint" />
          </mxGeometry>
        </mxCell>
        <mxCell id="A8YGYMG8HZCut2ozph0z-24" value="" style="endArrow=none;html=1;rounded=0;exitX=0;exitY=0;exitDx=0;exitDy=0;entryX=1;entryY=1;entryDx=0;entryDy=0;" edge="1" parent="1" source="A8YGYMG8HZCut2ozph0z-1" target="A8YGYMG8HZCut2ozph0z-5">
          <mxGeometry width="50" height="50" relative="1" as="geometry">
            <mxPoint x="95" y="160" as="sourcePoint" />
            <mxPoint x="145" y="110" as="targetPoint" />
          </mxGeometry>
        </mxCell>
        <mxCell id="A8YGYMG8HZCut2ozph0z-25" value="" style="endArrow=none;html=1;rounded=0;exitX=0.25;exitY=0;exitDx=0;exitDy=0;targetPerimeterSpacing=1;" edge="1" parent="1" source="A8YGYMG8HZCut2ozph0z-1">
          <mxGeometry width="50" height="50" relative="1" as="geometry">
            <mxPoint x="60" y="130" as="sourcePoint" />
            <mxPoint x="110" y="80" as="targetPoint" />
          </mxGeometry>
        </mxCell>
        <mxCell id="A8YGYMG8HZCut2ozph0z-27" value="Trainer" style="rounded=0;whiteSpace=wrap;html=1;" vertex="1" parent="1">
          <mxGeometry x="125" y="620" width="70" height="30" as="geometry" />
        </mxCell>
        <mxCell id="A8YGYMG8HZCut2ozph0z-28" value="Profile Picture" style="ellipse;whiteSpace=wrap;html=1;" vertex="1" parent="1">
          <mxGeometry x="-55" y="525" width="90" height="50" as="geometry" />
        </mxCell>
        <mxCell id="A8YGYMG8HZCut2ozph0z-29" value="Expertise" style="ellipse;whiteSpace=wrap;html=1;" vertex="1" parent="1">
          <mxGeometry x="70" y="795" width="70" height="40" as="geometry" />
        </mxCell>
        <mxCell id="A8YGYMG8HZCut2ozph0z-32" value="Designation" style="ellipse;whiteSpace=wrap;html=1;" vertex="1" parent="1">
          <mxGeometry x="20" y="485" width="80" height="50" as="geometry" />
        </mxCell>
        <mxCell id="A8YGYMG8HZCut2ozph0z-33" value="Contact number" style="ellipse;whiteSpace=wrap;html=1;" vertex="1" parent="1">
          <mxGeometry y="730" width="80" height="50" as="geometry" />
        </mxCell>
        <mxCell id="A8YGYMG8HZCut2ozph0z-36" value="Valid G-mail" style="ellipse;whiteSpace=wrap;html=1;" vertex="1" parent="1">
          <mxGeometry x="-50" y="600" width="80" height="50" as="geometry" />
        </mxCell>
        <mxCell id="A8YGYMG8HZCut2ozph0z-37" value="Joining Date" style="ellipse;whiteSpace=wrap;html=1;" vertex="1" parent="1">
          <mxGeometry x="110" y="475" width="80" height="50" as="geometry" />
        </mxCell>
        <mxCell id="A8YGYMG8HZCut2ozph0z-38" value="Experience" style="ellipse;whiteSpace=wrap;html=1;" vertex="1" parent="1">
          <mxGeometry x="140" y="770" width="80" height="50" as="geometry" />
        </mxCell>
        <mxCell id="A8YGYMG8HZCut2ozph0z-39" value="" style="endArrow=none;html=1;rounded=0;entryX=0.5;entryY=1;entryDx=0;entryDy=0;exitX=0.25;exitY=0;exitDx=0;exitDy=0;" edge="1" parent="1" source="A8YGYMG8HZCut2ozph0z-27" target="A8YGYMG8HZCut2ozph0z-32">
          <mxGeometry width="50" height="50" relative="1" as="geometry">
            <mxPoint x="130" y="610" as="sourcePoint" />
            <mxPoint x="140" y="560" as="targetPoint" />
          </mxGeometry>
        </mxCell>
        <mxCell id="A8YGYMG8HZCut2ozph0z-40" value="" style="endArrow=none;html=1;rounded=0;entryX=0.286;entryY=1;entryDx=0;entryDy=0;exitX=0.625;exitY=0;exitDx=0;exitDy=0;exitPerimeter=0;entryPerimeter=0;" edge="1" parent="1" source="A8YGYMG8HZCut2ozph0z-33" target="A8YGYMG8HZCut2ozph0z-27">
          <mxGeometry width="50" height="50" relative="1" as="geometry">
            <mxPoint x="160" y="670" as="sourcePoint" />
            <mxPoint x="210" y="620" as="targetPoint" />
          </mxGeometry>
        </mxCell>
        <mxCell id="A8YGYMG8HZCut2ozph0z-42" value="" style="endArrow=none;html=1;rounded=0;exitX=0.5;exitY=0;exitDx=0;exitDy=0;entryX=0.429;entryY=1;entryDx=0;entryDy=0;entryPerimeter=0;" edge="1" parent="1" source="A8YGYMG8HZCut2ozph0z-29" target="A8YGYMG8HZCut2ozph0z-27">
          <mxGeometry width="50" height="50" relative="1" as="geometry">
            <mxPoint x="160" y="670" as="sourcePoint" />
            <mxPoint x="210" y="620" as="targetPoint" />
          </mxGeometry>
        </mxCell>
        <mxCell id="A8YGYMG8HZCut2ozph0z-44" value="" style="endArrow=none;html=1;rounded=0;exitX=0.5;exitY=1;exitDx=0;exitDy=0;" edge="1" parent="1" source="A8YGYMG8HZCut2ozph0z-27" target="A8YGYMG8HZCut2ozph0z-38">
          <mxGeometry width="50" height="50" relative="1" as="geometry">
            <mxPoint x="160" y="670" as="sourcePoint" />
            <mxPoint x="210" y="620" as="targetPoint" />
          </mxGeometry>
        </mxCell>
        <mxCell id="A8YGYMG8HZCut2ozph0z-45" value="" style="endArrow=none;html=1;rounded=0;exitX=0.5;exitY=0;exitDx=0;exitDy=0;" edge="1" parent="1" source="A8YGYMG8HZCut2ozph0z-27" target="A8YGYMG8HZCut2ozph0z-37">
          <mxGeometry width="50" height="50" relative="1" as="geometry">
            <mxPoint x="160" y="670" as="sourcePoint" />
            <mxPoint x="210" y="620" as="targetPoint" />
          </mxGeometry>
        </mxCell>
        <mxCell id="A8YGYMG8HZCut2ozph0z-46" value="" style="endArrow=none;html=1;rounded=0;entryX=1;entryY=0.5;entryDx=0;entryDy=0;exitX=0;exitY=0.25;exitDx=0;exitDy=0;" edge="1" parent="1" source="A8YGYMG8HZCut2ozph0z-27" target="A8YGYMG8HZCut2ozph0z-36">
          <mxGeometry width="50" height="50" relative="1" as="geometry">
            <mxPoint x="160" y="670" as="sourcePoint" />
            <mxPoint x="210" y="620" as="targetPoint" />
          </mxGeometry>
        </mxCell>
        <mxCell id="A8YGYMG8HZCut2ozph0z-49" value="" style="endArrow=none;html=1;rounded=0;exitX=0;exitY=0;exitDx=0;exitDy=0;targetPerimeterSpacing=1;entryX=0.644;entryY=1.008;entryDx=0;entryDy=0;exitPerimeter=0;entryPerimeter=0;" edge="1" parent="1" source="A8YGYMG8HZCut2ozph0z-27" target="A8YGYMG8HZCut2ozph0z-28">
          <mxGeometry width="50" height="50" relative="1" as="geometry">
            <mxPoint x="30" y="560" as="sourcePoint" />
            <mxPoint x="80" y="510" as="targetPoint" />
          </mxGeometry>
        </mxCell>
        <mxCell id="A8YGYMG8HZCut2ozph0z-50" value="User" style="rounded=0;whiteSpace=wrap;html=1;" vertex="1" parent="1">
          <mxGeometry x="420" y="610" width="70" height="30" as="geometry" />
        </mxCell>
        <mxCell id="A8YGYMG8HZCut2ozph0z-51" value="username" style="ellipse;whiteSpace=wrap;html=1;" vertex="1" parent="1">
          <mxGeometry x="460" y="700" width="80" height="40" as="geometry" />
        </mxCell>
        <mxCell id="A8YGYMG8HZCut2ozph0z-52" value="password" style="ellipse;whiteSpace=wrap;html=1;" vertex="1" parent="1">
          <mxGeometry x="290" y="632.5" width="80" height="50" as="geometry" />
        </mxCell>
        <mxCell id="A8YGYMG8HZCut2ozph0z-53" value="role" style="ellipse;whiteSpace=wrap;html=1;" vertex="1" parent="1">
          <mxGeometry x="530" y="660" width="80" height="50" as="geometry" />
        </mxCell>
        <mxCell id="z-OaAf-kg-JAIfSSgoX3-1" value="User ID" style="rhombus;whiteSpace=wrap;html=1;" vertex="1" parent="1">
          <mxGeometry x="230" y="465" width="100" height="60" as="geometry" />
        </mxCell>
        <mxCell id="z-OaAf-kg-JAIfSSgoX3-2" value="" style="endArrow=none;html=1;rounded=0;exitX=0.75;exitY=0;exitDx=0;exitDy=0;entryX=0;entryY=0.5;entryDx=0;entryDy=0;" edge="1" parent="1" source="A8YGYMG8HZCut2ozph0z-27" target="z-OaAf-kg-JAIfSSgoX3-1">
          <mxGeometry width="50" height="50" relative="1" as="geometry">
            <mxPoint x="180" y="625" as="sourcePoint" />
            <mxPoint x="230" y="575" as="targetPoint" />
          </mxGeometry>
        </mxCell>
        <mxCell id="z-OaAf-kg-JAIfSSgoX3-3" value="" style="endArrow=none;html=1;rounded=0;entryX=0.75;entryY=1;entryDx=0;entryDy=0;exitX=0;exitY=0.5;exitDx=0;exitDy=0;" edge="1" parent="1" source="z-OaAf-kg-JAIfSSgoX3-95" target="A8YGYMG8HZCut2ozph0z-1">
          <mxGeometry width="50" height="50" relative="1" as="geometry">
            <mxPoint x="280" y="400" as="sourcePoint" />
            <mxPoint x="520" y="380" as="targetPoint" />
          </mxGeometry>
        </mxCell>
        <mxCell id="z-OaAf-kg-JAIfSSgoX3-4" value="" style="endArrow=none;html=1;rounded=0;exitX=0.5;exitY=0;exitDx=0;exitDy=0;entryX=1;entryY=0.5;entryDx=0;entryDy=0;" edge="1" parent="1" source="A8YGYMG8HZCut2ozph0z-50" target="z-OaAf-kg-JAIfSSgoX3-1">
          <mxGeometry width="50" height="50" relative="1" as="geometry">
            <mxPoint x="470" y="430" as="sourcePoint" />
            <mxPoint x="520" y="380" as="targetPoint" />
          </mxGeometry>
        </mxCell>
        <mxCell id="z-OaAf-kg-JAIfSSgoX3-5" value="" style="endArrow=none;html=1;rounded=0;exitX=1;exitY=0;exitDx=0;exitDy=0;entryX=0;entryY=0.5;entryDx=0;entryDy=0;" edge="1" parent="1" source="A8YGYMG8HZCut2ozph0z-52" target="A8YGYMG8HZCut2ozph0z-50">
          <mxGeometry width="50" height="50" relative="1" as="geometry">
            <mxPoint x="370" y="690" as="sourcePoint" />
            <mxPoint x="420" y="640" as="targetPoint" />
          </mxGeometry>
        </mxCell>
        <mxCell id="z-OaAf-kg-JAIfSSgoX3-6" value="" style="endArrow=none;html=1;rounded=0;exitX=0.4;exitY=0.05;exitDx=0;exitDy=0;exitPerimeter=0;" edge="1" parent="1" source="A8YGYMG8HZCut2ozph0z-51">
          <mxGeometry width="50" height="50" relative="1" as="geometry">
            <mxPoint x="470" y="690" as="sourcePoint" />
            <mxPoint x="455" y="640" as="targetPoint" />
          </mxGeometry>
        </mxCell>
        <mxCell id="z-OaAf-kg-JAIfSSgoX3-7" value="" style="endArrow=none;html=1;rounded=0;entryX=1;entryY=0.5;entryDx=0;entryDy=0;exitX=0;exitY=0;exitDx=0;exitDy=0;" edge="1" parent="1" source="A8YGYMG8HZCut2ozph0z-53" target="A8YGYMG8HZCut2ozph0z-50">
          <mxGeometry width="50" height="50" relative="1" as="geometry">
            <mxPoint x="540" y="650" as="sourcePoint" />
            <mxPoint x="590" y="600" as="targetPoint" />
          </mxGeometry>
        </mxCell>
        <mxCell id="z-OaAf-kg-JAIfSSgoX3-8" value="Batch Schedule" style="rounded=0;whiteSpace=wrap;html=1;" vertex="1" parent="1">
          <mxGeometry x="790" y="900" width="70" height="30" as="geometry" />
        </mxCell>
        <mxCell id="z-OaAf-kg-JAIfSSgoX3-10" value="End Date" style="ellipse;whiteSpace=wrap;html=1;" vertex="1" parent="1">
          <mxGeometry x="755" y="1040" width="70" height="40" as="geometry" />
        </mxCell>
        <mxCell id="z-OaAf-kg-JAIfSSgoX3-12" value="Start Date" style="ellipse;whiteSpace=wrap;html=1;" vertex="1" parent="1">
          <mxGeometry x="665" y="1000" width="80" height="50" as="geometry" />
        </mxCell>
        <mxCell id="z-OaAf-kg-JAIfSSgoX3-15" value="Course Name" style="ellipse;whiteSpace=wrap;html=1;" vertex="1" parent="1">
          <mxGeometry x="845" y="1030" width="80" height="50" as="geometry" />
        </mxCell>
        <mxCell id="z-OaAf-kg-JAIfSSgoX3-17" value="" style="endArrow=none;html=1;rounded=0;entryX=0;entryY=1;entryDx=0;entryDy=0;exitX=0.625;exitY=0;exitDx=0;exitDy=0;exitPerimeter=0;" edge="1" parent="1" source="z-OaAf-kg-JAIfSSgoX3-12" target="z-OaAf-kg-JAIfSSgoX3-8">
          <mxGeometry width="50" height="50" relative="1" as="geometry">
            <mxPoint x="855" y="970" as="sourcePoint" />
            <mxPoint x="905" y="920" as="targetPoint" />
          </mxGeometry>
        </mxCell>
        <mxCell id="z-OaAf-kg-JAIfSSgoX3-18" value="" style="endArrow=none;html=1;rounded=0;exitX=0.338;exitY=-0.01;exitDx=0;exitDy=0;exitPerimeter=0;entryX=0.25;entryY=1;entryDx=0;entryDy=0;" edge="1" parent="1" source="z-OaAf-kg-JAIfSSgoX3-10" target="z-OaAf-kg-JAIfSSgoX3-8">
          <mxGeometry width="50" height="50" relative="1" as="geometry">
            <mxPoint x="855" y="970" as="sourcePoint" />
            <mxPoint x="905" y="920" as="targetPoint" />
          </mxGeometry>
        </mxCell>
        <mxCell id="z-OaAf-kg-JAIfSSgoX3-19" value="" style="endArrow=none;html=1;rounded=0;exitX=0.5;exitY=1;exitDx=0;exitDy=0;" edge="1" parent="1" source="z-OaAf-kg-JAIfSSgoX3-8" target="z-OaAf-kg-JAIfSSgoX3-15">
          <mxGeometry width="50" height="50" relative="1" as="geometry">
            <mxPoint x="855" y="970" as="sourcePoint" />
            <mxPoint x="905" y="920" as="targetPoint" />
          </mxGeometry>
        </mxCell>
        <mxCell id="z-OaAf-kg-JAIfSSgoX3-21" value="" style="endArrow=none;html=1;rounded=0;entryX=1;entryY=0;entryDx=0;entryDy=0;exitX=0;exitY=0.25;exitDx=0;exitDy=0;" edge="1" parent="1" source="z-OaAf-kg-JAIfSSgoX3-8" target="z-OaAf-kg-JAIfSSgoX3-23">
          <mxGeometry width="50" height="50" relative="1" as="geometry">
            <mxPoint x="855" y="970" as="sourcePoint" />
            <mxPoint x="725" y="925" as="targetPoint" />
          </mxGeometry>
        </mxCell>
        <mxCell id="z-OaAf-kg-JAIfSSgoX3-23" value="Course id" style="ellipse;whiteSpace=wrap;html=1;" vertex="1" parent="1">
          <mxGeometry x="630" y="940" width="80" height="50" as="geometry" />
        </mxCell>
        <mxCell id="z-OaAf-kg-JAIfSSgoX3-24" value="Batch" style="rounded=0;whiteSpace=wrap;html=1;" vertex="1" parent="1">
          <mxGeometry x="1175" y="710" width="70" height="30" as="geometry" />
        </mxCell>
        <mxCell id="z-OaAf-kg-JAIfSSgoX3-25" value="End Date" style="ellipse;whiteSpace=wrap;html=1;" vertex="1" parent="1">
          <mxGeometry x="1335" y="850" width="70" height="40" as="geometry" />
        </mxCell>
        <mxCell id="z-OaAf-kg-JAIfSSgoX3-26" value="Start Date" style="ellipse;whiteSpace=wrap;html=1;" vertex="1" parent="1">
          <mxGeometry x="1290" y="880" width="80" height="50" as="geometry" />
        </mxCell>
        <mxCell id="z-OaAf-kg-JAIfSSgoX3-27" value="Batch Name" style="ellipse;whiteSpace=wrap;html=1;" vertex="1" parent="1">
          <mxGeometry x="1380" y="800" width="80" height="50" as="geometry" />
        </mxCell>
        <mxCell id="z-OaAf-kg-JAIfSSgoX3-28" value="" style="endArrow=none;html=1;rounded=0;entryX=0.414;entryY=1;entryDx=0;entryDy=0;exitX=0.625;exitY=0;exitDx=0;exitDy=0;exitPerimeter=0;entryPerimeter=0;" edge="1" parent="1" source="z-OaAf-kg-JAIfSSgoX3-26" target="z-OaAf-kg-JAIfSSgoX3-24">
          <mxGeometry width="50" height="50" relative="1" as="geometry">
            <mxPoint x="1275" y="810" as="sourcePoint" />
            <mxPoint x="1325" y="760" as="targetPoint" />
          </mxGeometry>
        </mxCell>
        <mxCell id="z-OaAf-kg-JAIfSSgoX3-29" value="" style="endArrow=none;html=1;rounded=0;exitX=0.5;exitY=0;exitDx=0;exitDy=0;entryX=0.75;entryY=1;entryDx=0;entryDy=0;" edge="1" parent="1" source="z-OaAf-kg-JAIfSSgoX3-25" target="z-OaAf-kg-JAIfSSgoX3-24">
          <mxGeometry width="50" height="50" relative="1" as="geometry">
            <mxPoint x="1275" y="810" as="sourcePoint" />
            <mxPoint x="1325" y="760" as="targetPoint" />
          </mxGeometry>
        </mxCell>
        <mxCell id="z-OaAf-kg-JAIfSSgoX3-30" value="" style="endArrow=none;html=1;rounded=0;exitX=1;exitY=1;exitDx=0;exitDy=0;" edge="1" parent="1" source="z-OaAf-kg-JAIfSSgoX3-24" target="z-OaAf-kg-JAIfSSgoX3-27">
          <mxGeometry width="50" height="50" relative="1" as="geometry">
            <mxPoint x="1275" y="810" as="sourcePoint" />
            <mxPoint x="1325" y="760" as="targetPoint" />
          </mxGeometry>
        </mxCell>
        <mxCell id="z-OaAf-kg-JAIfSSgoX3-31" value="" style="endArrow=none;html=1;rounded=0;entryX=1;entryY=0;entryDx=0;entryDy=0;exitX=0.25;exitY=1;exitDx=0;exitDy=0;" edge="1" parent="1" source="z-OaAf-kg-JAIfSSgoX3-24" target="z-OaAf-kg-JAIfSSgoX3-32">
          <mxGeometry width="50" height="50" relative="1" as="geometry">
            <mxPoint x="1275" y="810" as="sourcePoint" />
            <mxPoint x="1145" y="765" as="targetPoint" />
          </mxGeometry>
        </mxCell>
        <mxCell id="z-OaAf-kg-JAIfSSgoX3-32" value="Batch id" style="ellipse;whiteSpace=wrap;html=1;" vertex="1" parent="1">
          <mxGeometry x="1190" y="890" width="80" height="50" as="geometry" />
        </mxCell>
        <mxCell id="z-OaAf-kg-JAIfSSgoX3-33" value="Trainer ID" style="ellipse;whiteSpace=wrap;html=1;" vertex="1" parent="1">
          <mxGeometry x="-80" y="680" width="80" height="50" as="geometry" />
        </mxCell>
        <mxCell id="z-OaAf-kg-JAIfSSgoX3-34" value="" style="endArrow=none;html=1;rounded=0;exitX=1;exitY=0;exitDx=0;exitDy=0;entryX=0;entryY=0.75;entryDx=0;entryDy=0;" edge="1" parent="1" source="z-OaAf-kg-JAIfSSgoX3-33" target="A8YGYMG8HZCut2ozph0z-27">
          <mxGeometry width="50" height="50" relative="1" as="geometry">
            <mxPoint y="690" as="sourcePoint" />
            <mxPoint x="50" y="640" as="targetPoint" />
          </mxGeometry>
        </mxCell>
        <mxCell id="z-OaAf-kg-JAIfSSgoX3-35" value="Trainee ID" style="ellipse;whiteSpace=wrap;html=1;" vertex="1" parent="1">
          <mxGeometry x="-60" y="280" width="80" height="50" as="geometry" />
        </mxCell>
        <mxCell id="z-OaAf-kg-JAIfSSgoX3-36" value="" style="endArrow=none;html=1;rounded=0;exitX=0.75;exitY=0.1;exitDx=0;exitDy=0;exitPerimeter=0;entryX=0.171;entryY=0.967;entryDx=0;entryDy=0;entryPerimeter=0;" edge="1" parent="1" source="z-OaAf-kg-JAIfSSgoX3-35" target="A8YGYMG8HZCut2ozph0z-1">
          <mxGeometry width="50" height="50" relative="1" as="geometry">
            <mxPoint x="-120" y="340" as="sourcePoint" />
            <mxPoint x="-90" y="310" as="targetPoint" />
          </mxGeometry>
        </mxCell>
        <mxCell id="z-OaAf-kg-JAIfSSgoX3-37" value="" style="endArrow=none;html=1;rounded=0;entryX=0.25;entryY=1;entryDx=0;entryDy=0;exitX=0.663;exitY=0.02;exitDx=0;exitDy=0;exitPerimeter=0;" edge="1" parent="1" source="z-OaAf-kg-JAIfSSgoX3-38" target="A8YGYMG8HZCut2ozph0z-50">
          <mxGeometry width="50" height="50" relative="1" as="geometry">
            <mxPoint x="440" y="810" as="sourcePoint" />
            <mxPoint x="453.2842712474617" y="669.6623304703365" as="targetPoint" />
          </mxGeometry>
        </mxCell>
        <mxCell id="z-OaAf-kg-JAIfSSgoX3-38" value="User ID" style="ellipse;whiteSpace=wrap;html=1;" vertex="1" parent="1">
          <mxGeometry x="360" y="680" width="80" height="50" as="geometry" />
        </mxCell>
        <mxCell id="z-OaAf-kg-JAIfSSgoX3-39" value="Batch ID" style="rhombus;whiteSpace=wrap;html=1;" vertex="1" parent="1">
          <mxGeometry x="1005" y="860" width="80" height="70" as="geometry" />
        </mxCell>
        <mxCell id="z-OaAf-kg-JAIfSSgoX3-40" value="" style="endArrow=none;html=1;rounded=0;exitX=1;exitY=0.25;exitDx=0;exitDy=0;entryX=0;entryY=0.5;entryDx=0;entryDy=0;" edge="1" parent="1" source="z-OaAf-kg-JAIfSSgoX3-8" target="z-OaAf-kg-JAIfSSgoX3-39">
          <mxGeometry width="50" height="50" relative="1" as="geometry">
            <mxPoint x="885" y="840" as="sourcePoint" />
            <mxPoint x="1005" y="890" as="targetPoint" />
          </mxGeometry>
        </mxCell>
        <mxCell id="z-OaAf-kg-JAIfSSgoX3-41" value="" style="endArrow=none;html=1;rounded=0;exitX=1;exitY=0.5;exitDx=0;exitDy=0;entryX=0;entryY=0.75;entryDx=0;entryDy=0;" edge="1" parent="1" source="z-OaAf-kg-JAIfSSgoX3-39" target="z-OaAf-kg-JAIfSSgoX3-24">
          <mxGeometry width="50" height="50" relative="1" as="geometry">
            <mxPoint x="935" y="625" as="sourcePoint" />
            <mxPoint x="985" y="575" as="targetPoint" />
          </mxGeometry>
        </mxCell>
        <mxCell id="z-OaAf-kg-JAIfSSgoX3-42" value="Assignment Create" style="rounded=0;whiteSpace=wrap;html=1;" vertex="1" parent="1">
          <mxGeometry x="710" y="485" width="70" height="30" as="geometry" />
        </mxCell>
        <mxCell id="z-OaAf-kg-JAIfSSgoX3-52" value="" style="endArrow=none;html=1;rounded=0;exitX=0.5;exitY=0;exitDx=0;exitDy=0;entryX=0;entryY=1;entryDx=0;entryDy=0;" edge="1" parent="1" source="z-OaAf-kg-JAIfSSgoX3-60" target="z-OaAf-kg-JAIfSSgoX3-42">
          <mxGeometry width="50" height="50" relative="1" as="geometry">
            <mxPoint x="995" y="480" as="sourcePoint" />
            <mxPoint x="930" y="360" as="targetPoint" />
          </mxGeometry>
        </mxCell>
        <mxCell id="z-OaAf-kg-JAIfSSgoX3-53" value="" style="endArrow=none;html=1;rounded=0;exitX=0.25;exitY=1;exitDx=0;exitDy=0;entryX=0.398;entryY=-0.022;entryDx=0;entryDy=0;entryPerimeter=0;" edge="1" parent="1" source="z-OaAf-kg-JAIfSSgoX3-42" target="z-OaAf-kg-JAIfSSgoX3-61">
          <mxGeometry width="50" height="50" relative="1" as="geometry">
            <mxPoint x="880" y="410" as="sourcePoint" />
            <mxPoint x="998.0798490234656" y="434.9336887390755" as="targetPoint" />
          </mxGeometry>
        </mxCell>
        <mxCell id="z-OaAf-kg-JAIfSSgoX3-60" value="Assignment FIle" style="ellipse;whiteSpace=wrap;html=1;" vertex="1" parent="1">
          <mxGeometry x="585" y="560" width="80" height="50" as="geometry" />
        </mxCell>
        <mxCell id="z-OaAf-kg-JAIfSSgoX3-61" value="Assignment ID" style="ellipse;whiteSpace=wrap;html=1;" vertex="1" parent="1">
          <mxGeometry x="665" y="620" width="80" height="50" as="geometry" />
        </mxCell>
        <mxCell id="z-OaAf-kg-JAIfSSgoX3-63" value="Assignment Deadline" style="ellipse;whiteSpace=wrap;html=1;" vertex="1" parent="1">
          <mxGeometry x="765" y="610" width="80" height="50" as="geometry" />
        </mxCell>
        <mxCell id="z-OaAf-kg-JAIfSSgoX3-64" value="" style="endArrow=none;html=1;rounded=0;exitX=0.5;exitY=1;exitDx=0;exitDy=0;" edge="1" parent="1" source="z-OaAf-kg-JAIfSSgoX3-42" target="z-OaAf-kg-JAIfSSgoX3-63">
          <mxGeometry width="50" height="50" relative="1" as="geometry">
            <mxPoint x="970" y="380" as="sourcePoint" />
            <mxPoint x="1020" y="330" as="targetPoint" />
          </mxGeometry>
        </mxCell>
        <mxCell id="z-OaAf-kg-JAIfSSgoX3-65" value="" style="endArrow=none;html=1;rounded=0;entryX=0;entryY=0.5;entryDx=0;entryDy=0;exitX=1;exitY=0.5;exitDx=0;exitDy=0;" edge="1" parent="1" source="A8YGYMG8HZCut2ozph0z-27" target="z-OaAf-kg-JAIfSSgoX3-67">
          <mxGeometry width="50" height="50" relative="1" as="geometry">
            <mxPoint x="170" y="620" as="sourcePoint" />
            <mxPoint x="320" y="575" as="targetPoint" />
          </mxGeometry>
        </mxCell>
        <mxCell id="z-OaAf-kg-JAIfSSgoX3-66" value="" style="endArrow=none;html=1;rounded=0;entryX=0.75;entryY=1;entryDx=0;entryDy=0;exitX=0;exitY=0.5;exitDx=0;exitDy=0;" edge="1" parent="1" source="z-OaAf-kg-JAIfSSgoX3-94" target="z-OaAf-kg-JAIfSSgoX3-42">
          <mxGeometry width="50" height="50" relative="1" as="geometry">
            <mxPoint x="940" y="580" as="sourcePoint" />
            <mxPoint x="860" y="420" as="targetPoint" />
          </mxGeometry>
        </mxCell>
        <mxCell id="z-OaAf-kg-JAIfSSgoX3-67" value="Trainer ID" style="rhombus;whiteSpace=wrap;html=1;" vertex="1" parent="1">
          <mxGeometry x="490" y="510" width="105" height="65" as="geometry" />
        </mxCell>
        <mxCell id="z-OaAf-kg-JAIfSSgoX3-68" value="" style="endArrow=none;html=1;rounded=0;exitX=1;exitY=0.5;exitDx=0;exitDy=0;entryX=0;entryY=0.5;entryDx=0;entryDy=0;" edge="1" parent="1" source="z-OaAf-kg-JAIfSSgoX3-67" target="z-OaAf-kg-JAIfSSgoX3-42">
          <mxGeometry width="50" height="50" relative="1" as="geometry">
            <mxPoint x="660" y="470" as="sourcePoint" />
            <mxPoint x="710" y="420" as="targetPoint" />
          </mxGeometry>
        </mxCell>
        <mxCell id="z-OaAf-kg-JAIfSSgoX3-69" value="Assignment Submission" style="rounded=0;whiteSpace=wrap;html=1;" vertex="1" parent="1">
          <mxGeometry x="542.5" y="267.5" width="70" height="30" as="geometry" />
        </mxCell>
        <mxCell id="z-OaAf-kg-JAIfSSgoX3-70" value="" style="endArrow=none;html=1;rounded=0;exitX=0;exitY=0.5;exitDx=0;exitDy=0;entryX=1;entryY=1;entryDx=0;entryDy=0;" edge="1" parent="1" source="z-OaAf-kg-JAIfSSgoX3-76" target="A8YGYMG8HZCut2ozph0z-1">
          <mxGeometry width="50" height="50" relative="1" as="geometry">
            <mxPoint x="340" y="210" as="sourcePoint" />
            <mxPoint x="200" y="200" as="targetPoint" />
          </mxGeometry>
        </mxCell>
        <mxCell id="z-OaAf-kg-JAIfSSgoX3-71" value="" style="endArrow=none;html=1;rounded=0;exitX=0.883;exitY=1.002;exitDx=0;exitDy=0;exitPerimeter=0;entryX=0;entryY=0.5;entryDx=0;entryDy=0;" edge="1" parent="1" source="z-OaAf-kg-JAIfSSgoX3-69" target="z-OaAf-kg-JAIfSSgoX3-78">
          <mxGeometry width="50" height="50" relative="1" as="geometry">
            <mxPoint x="620" y="200" as="sourcePoint" />
            <mxPoint x="900" y="350" as="targetPoint" />
          </mxGeometry>
        </mxCell>
        <mxCell id="z-OaAf-kg-JAIfSSgoX3-74" value="File" style="ellipse;whiteSpace=wrap;html=1;" vertex="1" parent="1">
          <mxGeometry x="430" y="330" width="50" height="35" as="geometry" />
        </mxCell>
        <mxCell id="z-OaAf-kg-JAIfSSgoX3-75" value="" style="endArrow=none;html=1;rounded=0;exitX=0;exitY=1;exitDx=0;exitDy=0;entryX=1;entryY=0;entryDx=0;entryDy=0;" edge="1" parent="1" source="z-OaAf-kg-JAIfSSgoX3-69" target="z-OaAf-kg-JAIfSSgoX3-74">
          <mxGeometry width="50" height="50" relative="1" as="geometry">
            <mxPoint x="550" y="290" as="sourcePoint" />
            <mxPoint x="470" y="370" as="targetPoint" />
          </mxGeometry>
        </mxCell>
        <mxCell id="z-OaAf-kg-JAIfSSgoX3-76" value="Trainee ID" style="rhombus;whiteSpace=wrap;html=1;" vertex="1" parent="1">
          <mxGeometry x="320" y="233.75" width="80" height="60" as="geometry" />
        </mxCell>
        <mxCell id="z-OaAf-kg-JAIfSSgoX3-77" value="" style="endArrow=none;html=1;rounded=0;exitX=1;exitY=0.5;exitDx=0;exitDy=0;entryX=0;entryY=0.25;entryDx=0;entryDy=0;" edge="1" parent="1" source="z-OaAf-kg-JAIfSSgoX3-76" target="z-OaAf-kg-JAIfSSgoX3-69">
          <mxGeometry width="50" height="50" relative="1" as="geometry">
            <mxPoint x="475" y="250" as="sourcePoint" />
            <mxPoint x="525" y="200" as="targetPoint" />
          </mxGeometry>
        </mxCell>
        <mxCell id="z-OaAf-kg-JAIfSSgoX3-78" value="Batch ID" style="rhombus;whiteSpace=wrap;html=1;" vertex="1" parent="1">
          <mxGeometry x="807.5" y="390" width="80" height="70" as="geometry" />
        </mxCell>
        <mxCell id="z-OaAf-kg-JAIfSSgoX3-79" value="" style="endArrow=none;html=1;rounded=0;exitX=1;exitY=0.5;exitDx=0;exitDy=0;entryX=0;entryY=0;entryDx=0;entryDy=0;" edge="1" parent="1" source="z-OaAf-kg-JAIfSSgoX3-78" target="z-OaAf-kg-JAIfSSgoX3-24">
          <mxGeometry width="50" height="50" relative="1" as="geometry">
            <mxPoint x="1170" y="440" as="sourcePoint" />
            <mxPoint x="1458" y="625" as="targetPoint" />
          </mxGeometry>
        </mxCell>
        <mxCell id="z-OaAf-kg-JAIfSSgoX3-80" value="Classroom Post" style="rounded=0;whiteSpace=wrap;html=1;" vertex="1" parent="1">
          <mxGeometry x="1070" y="247.5" width="75" height="32.5" as="geometry" />
        </mxCell>
        <mxCell id="z-OaAf-kg-JAIfSSgoX3-81" value="Post File" style="ellipse;whiteSpace=wrap;html=1;" vertex="1" parent="1">
          <mxGeometry x="1075" y="420" width="70" height="40" as="geometry" />
        </mxCell>
        <mxCell id="z-OaAf-kg-JAIfSSgoX3-82" value="Post Message" style="ellipse;whiteSpace=wrap;html=1;" vertex="1" parent="1">
          <mxGeometry x="1000" y="365" width="90" height="50" as="geometry" />
        </mxCell>
        <mxCell id="z-OaAf-kg-JAIfSSgoX3-83" value="" style="endArrow=none;html=1;rounded=0;entryX=0.13;entryY=0.966;entryDx=0;entryDy=0;exitX=0.694;exitY=0.066;exitDx=0;exitDy=0;entryPerimeter=0;exitPerimeter=0;" edge="1" parent="1" source="z-OaAf-kg-JAIfSSgoX3-82" target="z-OaAf-kg-JAIfSSgoX3-80">
          <mxGeometry width="50" height="50" relative="1" as="geometry">
            <mxPoint x="1225" y="310" as="sourcePoint" />
            <mxPoint x="1275" y="260" as="targetPoint" />
          </mxGeometry>
        </mxCell>
        <mxCell id="z-OaAf-kg-JAIfSSgoX3-84" value="" style="endArrow=none;html=1;rounded=0;exitX=0.5;exitY=0;exitDx=0;exitDy=0;entryX=0.5;entryY=1;entryDx=0;entryDy=0;" edge="1" parent="1" source="z-OaAf-kg-JAIfSSgoX3-81" target="z-OaAf-kg-JAIfSSgoX3-80">
          <mxGeometry width="50" height="50" relative="1" as="geometry">
            <mxPoint x="1225" y="310" as="sourcePoint" />
            <mxPoint x="1140" y="310" as="targetPoint" />
          </mxGeometry>
        </mxCell>
        <mxCell id="z-OaAf-kg-JAIfSSgoX3-86" value="" style="endArrow=none;html=1;rounded=0;exitX=0;exitY=0.5;exitDx=0;exitDy=0;" edge="1" parent="1" source="z-OaAf-kg-JAIfSSgoX3-80" target="z-OaAf-kg-JAIfSSgoX3-87">
          <mxGeometry width="50" height="50" relative="1" as="geometry">
            <mxPoint x="1225" y="310" as="sourcePoint" />
            <mxPoint x="1098" y="337" as="targetPoint" />
          </mxGeometry>
        </mxCell>
        <mxCell id="z-OaAf-kg-JAIfSSgoX3-87" value="Post ID" style="ellipse;whiteSpace=wrap;html=1;" vertex="1" parent="1">
          <mxGeometry x="950" y="316.25" width="80" height="50" as="geometry" />
        </mxCell>
        <mxCell id="z-OaAf-kg-JAIfSSgoX3-89" value="Classroom" style="rounded=0;whiteSpace=wrap;html=1;" vertex="1" parent="1">
          <mxGeometry x="1300" y="475" width="70" height="30" as="geometry" />
        </mxCell>
        <mxCell id="z-OaAf-kg-JAIfSSgoX3-91" value="Classroom ID" style="ellipse;whiteSpace=wrap;html=1;" vertex="1" parent="1">
          <mxGeometry x="1420" y="400" width="80" height="50" as="geometry" />
        </mxCell>
        <mxCell id="z-OaAf-kg-JAIfSSgoX3-92" value="" style="endArrow=none;html=1;rounded=0;exitX=0;exitY=0.5;exitDx=0;exitDy=0;entryX=1;entryY=0.5;entryDx=0;entryDy=0;" edge="1" parent="1" source="z-OaAf-kg-JAIfSSgoX3-91" target="z-OaAf-kg-JAIfSSgoX3-89">
          <mxGeometry width="50" height="50" relative="1" as="geometry">
            <mxPoint x="1315" y="437.5" as="sourcePoint" />
            <mxPoint x="1500" y="380" as="targetPoint" />
          </mxGeometry>
        </mxCell>
        <mxCell id="z-OaAf-kg-JAIfSSgoX3-94" value="Batch ID" style="rhombus;whiteSpace=wrap;html=1;" vertex="1" parent="1">
          <mxGeometry x="845" y="540" width="80" height="70" as="geometry" />
        </mxCell>
        <mxCell id="z-OaAf-kg-JAIfSSgoX3-95" value="User ID" style="rhombus;whiteSpace=wrap;html=1;" vertex="1" parent="1">
          <mxGeometry x="290" y="370" width="100" height="60" as="geometry" />
        </mxCell>
        <mxCell id="z-OaAf-kg-JAIfSSgoX3-96" value="" style="endArrow=none;html=1;rounded=0;entryX=1;entryY=0.5;entryDx=0;entryDy=0;exitX=0.75;exitY=0;exitDx=0;exitDy=0;" edge="1" parent="1" source="A8YGYMG8HZCut2ozph0z-50" target="z-OaAf-kg-JAIfSSgoX3-95">
          <mxGeometry width="50" height="50" relative="1" as="geometry">
            <mxPoint x="640" y="360" as="sourcePoint" />
            <mxPoint x="533" y="170" as="targetPoint" />
          </mxGeometry>
        </mxCell>
        <mxCell id="z-OaAf-kg-JAIfSSgoX3-97" value="" style="endArrow=none;html=1;rounded=0;entryX=1;entryY=0.5;entryDx=0;entryDy=0;exitX=0;exitY=0.5;exitDx=0;exitDy=0;" edge="1" parent="1" source="z-OaAf-kg-JAIfSSgoX3-24" target="z-OaAf-kg-JAIfSSgoX3-94">
          <mxGeometry width="50" height="50" relative="1" as="geometry">
            <mxPoint x="1240" y="560" as="sourcePoint" />
            <mxPoint x="1053" y="480" as="targetPoint" />
          </mxGeometry>
        </mxCell>
        <mxCell id="z-OaAf-kg-JAIfSSgoX3-98" value="" style="endArrow=none;html=1;rounded=0;entryX=0.75;entryY=1;entryDx=0;entryDy=0;exitX=1;exitY=0.5;exitDx=0;exitDy=0;" edge="1" parent="1" source="z-OaAf-kg-JAIfSSgoX3-99" target="z-OaAf-kg-JAIfSSgoX3-89">
          <mxGeometry width="50" height="50" relative="1" as="geometry">
            <mxPoint x="1230" y="470" as="sourcePoint" />
            <mxPoint x="1043" y="390" as="targetPoint" />
          </mxGeometry>
        </mxCell>
        <mxCell id="z-OaAf-kg-JAIfSSgoX3-99" value="Batch ID" style="rhombus;whiteSpace=wrap;html=1;" vertex="1" parent="1">
          <mxGeometry x="1255" y="575" width="80" height="55" as="geometry" />
        </mxCell>
        <mxCell id="z-OaAf-kg-JAIfSSgoX3-100" value="Classroom ID" style="rhombus;whiteSpace=wrap;html=1;" vertex="1" parent="1">
          <mxGeometry x="1160" y="352.5" width="100" height="70" as="geometry" />
        </mxCell>
        <mxCell id="z-OaAf-kg-JAIfSSgoX3-101" value="" style="endArrow=none;html=1;rounded=0;entryX=0;entryY=0.5;entryDx=0;entryDy=0;exitX=0.5;exitY=0;exitDx=0;exitDy=0;" edge="1" parent="1" source="z-OaAf-kg-JAIfSSgoX3-24" target="z-OaAf-kg-JAIfSSgoX3-99">
          <mxGeometry width="50" height="50" relative="1" as="geometry">
            <mxPoint x="1050" y="580" as="sourcePoint" />
            <mxPoint x="1100" y="530" as="targetPoint" />
          </mxGeometry>
        </mxCell>
        <mxCell id="z-OaAf-kg-JAIfSSgoX3-103" value="" style="endArrow=none;html=1;rounded=0;exitX=0.75;exitY=1;exitDx=0;exitDy=0;entryX=0;entryY=0.5;entryDx=0;entryDy=0;" edge="1" parent="1" source="z-OaAf-kg-JAIfSSgoX3-80" target="z-OaAf-kg-JAIfSSgoX3-100">
          <mxGeometry width="50" height="50" relative="1" as="geometry">
            <mxPoint x="1165" y="470" as="sourcePoint" />
            <mxPoint x="1215" y="420" as="targetPoint" />
          </mxGeometry>
        </mxCell>
        <mxCell id="z-OaAf-kg-JAIfSSgoX3-104" value="" style="endArrow=none;html=1;rounded=0;exitX=0;exitY=0;exitDx=0;exitDy=0;entryX=1;entryY=0.5;entryDx=0;entryDy=0;" edge="1" parent="1" source="z-OaAf-kg-JAIfSSgoX3-89" target="z-OaAf-kg-JAIfSSgoX3-100">
          <mxGeometry width="50" height="50" relative="1" as="geometry">
            <mxPoint x="1340" y="485" as="sourcePoint" />
            <mxPoint x="1390" y="435" as="targetPoint" />
          </mxGeometry>
        </mxCell>
        <mxCell id="z-OaAf-kg-JAIfSSgoX3-105" value="Trainer ID" style="rhombus;whiteSpace=wrap;html=1;" vertex="1" parent="1">
          <mxGeometry x="795" y="251.25" width="105" height="65" as="geometry" />
        </mxCell>
        <mxCell id="z-OaAf-kg-JAIfSSgoX3-106" value="" style="endArrow=none;html=1;rounded=0;exitX=1;exitY=0;exitDx=0;exitDy=0;entryX=0;entryY=0.5;entryDx=0;entryDy=0;" edge="1" parent="1" source="A8YGYMG8HZCut2ozph0z-27" target="z-OaAf-kg-JAIfSSgoX3-105">
          <mxGeometry width="50" height="50" relative="1" as="geometry">
            <mxPoint x="710" y="460" as="sourcePoint" />
            <mxPoint x="760" y="410" as="targetPoint" />
          </mxGeometry>
        </mxCell>
        <mxCell id="z-OaAf-kg-JAIfSSgoX3-107" value="" style="endArrow=none;html=1;rounded=0;exitX=1;exitY=0.5;exitDx=0;exitDy=0;entryX=0;entryY=0.25;entryDx=0;entryDy=0;" edge="1" parent="1" source="z-OaAf-kg-JAIfSSgoX3-105" target="z-OaAf-kg-JAIfSSgoX3-80">
          <mxGeometry width="50" height="50" relative="1" as="geometry">
            <mxPoint x="970" y="280" as="sourcePoint" />
            <mxPoint x="1120" y="270" as="targetPoint" />
          </mxGeometry>
        </mxCell>
        <mxCell id="z-OaAf-kg-JAIfSSgoX3-108" value="Trainee ID" style="rhombus;whiteSpace=wrap;html=1;" vertex="1" parent="1">
          <mxGeometry x="525" y="140" width="105" height="65" as="geometry" />
        </mxCell>
        <mxCell id="z-OaAf-kg-JAIfSSgoX3-109" value="" style="endArrow=none;html=1;rounded=0;exitX=1;exitY=0.5;exitDx=0;exitDy=0;entryX=0;entryY=0.5;entryDx=0;entryDy=0;" edge="1" parent="1" source="A8YGYMG8HZCut2ozph0z-1" target="z-OaAf-kg-JAIfSSgoX3-108">
          <mxGeometry width="50" height="50" relative="1" as="geometry">
            <mxPoint x="470" y="195" as="sourcePoint" />
            <mxPoint x="520" y="145" as="targetPoint" />
          </mxGeometry>
        </mxCell>
        <mxCell id="z-OaAf-kg-JAIfSSgoX3-110" value="Comment" style="rounded=0;whiteSpace=wrap;html=1;" vertex="1" parent="1">
          <mxGeometry x="800" y="170" width="70" height="30" as="geometry" />
        </mxCell>
        <mxCell id="z-OaAf-kg-JAIfSSgoX3-111" value="Comment ID" style="ellipse;whiteSpace=wrap;html=1;" vertex="1" parent="1">
          <mxGeometry x="760" y="20" width="80" height="50" as="geometry" />
        </mxCell>
        <mxCell id="z-OaAf-kg-JAIfSSgoX3-112" value="Comment" style="ellipse;whiteSpace=wrap;html=1;" vertex="1" parent="1">
          <mxGeometry x="900" y="30" width="80" height="50" as="geometry" />
        </mxCell>
        <mxCell id="z-OaAf-kg-JAIfSSgoX3-113" value="" style="endArrow=none;html=1;rounded=0;entryX=0;entryY=0.5;entryDx=0;entryDy=0;exitX=1;exitY=0.5;exitDx=0;exitDy=0;" edge="1" parent="1" source="z-OaAf-kg-JAIfSSgoX3-108" target="z-OaAf-kg-JAIfSSgoX3-110">
          <mxGeometry width="50" height="50" relative="1" as="geometry">
            <mxPoint x="880" y="200" as="sourcePoint" />
            <mxPoint x="930" y="150" as="targetPoint" />
          </mxGeometry>
        </mxCell>
        <mxCell id="z-OaAf-kg-JAIfSSgoX3-114" value="" style="endArrow=none;html=1;rounded=0;exitX=0.5;exitY=0;exitDx=0;exitDy=0;" edge="1" parent="1" source="z-OaAf-kg-JAIfSSgoX3-110" target="z-OaAf-kg-JAIfSSgoX3-111">
          <mxGeometry width="50" height="50" relative="1" as="geometry">
            <mxPoint x="1080" y="120" as="sourcePoint" />
            <mxPoint x="1130" y="70" as="targetPoint" />
          </mxGeometry>
        </mxCell>
        <mxCell id="z-OaAf-kg-JAIfSSgoX3-115" value="" style="endArrow=none;html=1;rounded=0;exitX=0.75;exitY=0;exitDx=0;exitDy=0;entryX=0;entryY=1;entryDx=0;entryDy=0;" edge="1" parent="1" source="z-OaAf-kg-JAIfSSgoX3-110" target="z-OaAf-kg-JAIfSSgoX3-112">
          <mxGeometry width="50" height="50" relative="1" as="geometry">
            <mxPoint x="1219" y="139" as="sourcePoint" />
            <mxPoint x="1198" y="64" as="targetPoint" />
          </mxGeometry>
        </mxCell>
        <mxCell id="z-OaAf-kg-JAIfSSgoX3-117" value="Comment ID" style="rhombus;whiteSpace=wrap;html=1;" vertex="1" parent="1">
          <mxGeometry x="945" y="160" width="90" height="60" as="geometry" />
        </mxCell>
        <mxCell id="z-OaAf-kg-JAIfSSgoX3-118" value="" style="endArrow=none;html=1;rounded=0;entryX=1;entryY=0.5;entryDx=0;entryDy=0;exitX=0;exitY=0.5;exitDx=0;exitDy=0;" edge="1" parent="1" source="z-OaAf-kg-JAIfSSgoX3-117" target="z-OaAf-kg-JAIfSSgoX3-110">
          <mxGeometry width="50" height="50" relative="1" as="geometry">
            <mxPoint x="970" y="260" as="sourcePoint" />
            <mxPoint x="1020" y="210" as="targetPoint" />
          </mxGeometry>
        </mxCell>
        <mxCell id="z-OaAf-kg-JAIfSSgoX3-119" value="" style="endArrow=none;html=1;rounded=0;entryX=1;entryY=0.5;entryDx=0;entryDy=0;" edge="1" parent="1" source="z-OaAf-kg-JAIfSSgoX3-80" target="z-OaAf-kg-JAIfSSgoX3-117">
          <mxGeometry width="50" height="50" relative="1" as="geometry">
            <mxPoint x="1320" y="100" as="sourcePoint" />
            <mxPoint x="1240" y="50" as="targetPoint" />
          </mxGeometry>
        </mxCell>
        <mxCell id="z-OaAf-kg-JAIfSSgoX3-122" value="Trainer ID" style="rhombus;whiteSpace=wrap;html=1;" vertex="1" parent="1">
          <mxGeometry x="447.5" y="782.5" width="105" height="65" as="geometry" />
        </mxCell>
        <mxCell id="z-OaAf-kg-JAIfSSgoX3-123" value="" style="endArrow=none;html=1;rounded=0;exitX=0.75;exitY=1;exitDx=0;exitDy=0;entryX=0;entryY=0.5;entryDx=0;entryDy=0;" edge="1" parent="1" source="A8YGYMG8HZCut2ozph0z-27" target="z-OaAf-kg-JAIfSSgoX3-122">
          <mxGeometry width="50" height="50" relative="1" as="geometry">
            <mxPoint x="300" y="795" as="sourcePoint" />
            <mxPoint x="350" y="745" as="targetPoint" />
          </mxGeometry>
        </mxCell>
        <mxCell id="z-OaAf-kg-JAIfSSgoX3-124" value="Notice" style="rounded=0;whiteSpace=wrap;html=1;" vertex="1" parent="1">
          <mxGeometry x="787.5" y="710" width="70" height="30" as="geometry" />
        </mxCell>
        <mxCell id="z-OaAf-kg-JAIfSSgoX3-126" value="Notice ID" style="ellipse;whiteSpace=wrap;html=1;" vertex="1" parent="1">
          <mxGeometry x="732.5" y="810" width="70" height="40" as="geometry" />
        </mxCell>
        <mxCell id="z-OaAf-kg-JAIfSSgoX3-127" value="Notice" style="ellipse;whiteSpace=wrap;html=1;" vertex="1" parent="1">
          <mxGeometry x="812.5" y="817.5" width="70" height="40" as="geometry" />
        </mxCell>
        <mxCell id="z-OaAf-kg-JAIfSSgoX3-128" value="" style="endArrow=none;html=1;rounded=0;exitX=0.643;exitY=-0.025;exitDx=0;exitDy=0;exitPerimeter=0;entryX=0.25;entryY=1;entryDx=0;entryDy=0;" edge="1" parent="1" source="z-OaAf-kg-JAIfSSgoX3-126" target="z-OaAf-kg-JAIfSSgoX3-124">
          <mxGeometry width="50" height="50" relative="1" as="geometry">
            <mxPoint x="762.5" y="805" as="sourcePoint" />
            <mxPoint x="812.5" y="730" as="targetPoint" />
          </mxGeometry>
        </mxCell>
        <mxCell id="z-OaAf-kg-JAIfSSgoX3-129" value="" style="endArrow=none;html=1;rounded=0;exitX=0.414;exitY=-0.025;exitDx=0;exitDy=0;exitPerimeter=0;entryX=0.5;entryY=1;entryDx=0;entryDy=0;" edge="1" parent="1" source="z-OaAf-kg-JAIfSSgoX3-127" target="z-OaAf-kg-JAIfSSgoX3-124">
          <mxGeometry width="50" height="50" relative="1" as="geometry">
            <mxPoint x="887.5" y="790" as="sourcePoint" />
            <mxPoint x="937.5" y="740" as="targetPoint" />
          </mxGeometry>
        </mxCell>
        <mxCell id="z-OaAf-kg-JAIfSSgoX3-130" value="" style="endArrow=none;html=1;rounded=0;exitX=1;exitY=0.5;exitDx=0;exitDy=0;entryX=0;entryY=0.75;entryDx=0;entryDy=0;" edge="1" parent="1" source="z-OaAf-kg-JAIfSSgoX3-122" target="z-OaAf-kg-JAIfSSgoX3-124">
          <mxGeometry width="50" height="50" relative="1" as="geometry">
            <mxPoint x="660" y="810" as="sourcePoint" />
            <mxPoint x="710" y="760" as="targetPoint" />
          </mxGeometry>
        </mxCell>
        <mxCell id="z-OaAf-kg-JAIfSSgoX3-131" value="Classroom ID" style="rhombus;whiteSpace=wrap;html=1;" vertex="1" parent="1">
          <mxGeometry x="1110" y="530" width="100" height="70" as="geometry" />
        </mxCell>
        <mxCell id="z-OaAf-kg-JAIfSSgoX3-132" value="" style="endArrow=none;html=1;rounded=0;exitX=0.75;exitY=0;exitDx=0;exitDy=0;entryX=0;entryY=0.5;entryDx=0;entryDy=0;" edge="1" parent="1" source="z-OaAf-kg-JAIfSSgoX3-124" target="z-OaAf-kg-JAIfSSgoX3-131">
          <mxGeometry width="50" height="50" relative="1" as="geometry">
            <mxPoint x="870" y="730" as="sourcePoint" />
            <mxPoint x="920" y="680" as="targetPoint" />
          </mxGeometry>
        </mxCell>
        <mxCell id="z-OaAf-kg-JAIfSSgoX3-133" value="" style="endArrow=none;html=1;rounded=0;exitX=1;exitY=0.5;exitDx=0;exitDy=0;entryX=0;entryY=0.5;entryDx=0;entryDy=0;" edge="1" parent="1" source="z-OaAf-kg-JAIfSSgoX3-131" target="z-OaAf-kg-JAIfSSgoX3-89">
          <mxGeometry width="50" height="50" relative="1" as="geometry">
            <mxPoint x="1235" y="557.5" as="sourcePoint" />
            <mxPoint x="1285" y="507.5" as="targetPoint" />
          </mxGeometry>
        </mxCell>
        <mxCell id="z-OaAf-kg-JAIfSSgoX3-134" value="Time" style="ellipse;whiteSpace=wrap;html=1;" vertex="1" parent="1">
          <mxGeometry x="867.5" y="780" width="70" height="40" as="geometry" />
        </mxCell>
        <mxCell id="z-OaAf-kg-JAIfSSgoX3-135" value="" style="endArrow=none;html=1;rounded=0;entryX=0;entryY=0;entryDx=0;entryDy=0;exitX=0.75;exitY=1;exitDx=0;exitDy=0;" edge="1" parent="1" source="z-OaAf-kg-JAIfSSgoX3-124" target="z-OaAf-kg-JAIfSSgoX3-134">
          <mxGeometry width="50" height="50" relative="1" as="geometry">
            <mxPoint x="812.5" y="700" as="sourcePoint" />
            <mxPoint x="862.5" y="650" as="targetPoint" />
          </mxGeometry>
        </mxCell>
      </root>
    </mxGraphModel>
  </diagram>
</mxfile>
